<svg width="256" height="256" viewBox="0 0 256 256" fill="none" xmlns="http://www.w3.org/2000/svg">
<g clip-path="url(#clip0_5858_13)">
<rect width="256" height="256" fill="#0A0B0F"/>
<path d="M117.402 130.603H144.796V131.331H137.365V134.246H125.562V137.16H124.542V137.889H125.853V140.803H117.839V141.531C117.839 141.92 117.791 142.309 117.693 142.697C117.693 142.989 117.693 143.329 117.693 143.717H123.522C123.522 144.106 123.473 144.494 123.376 144.883C123.376 145.174 123.376 145.514 123.376 145.903H120.316L119.879 148.817H122.211C122.113 149.011 122.065 149.254 122.065 149.546C122.065 149.837 122.016 150.08 121.919 150.274H123.668C123.571 150.76 123.473 151.246 123.376 151.731C123.279 152.217 123.182 152.703 123.085 153.189H123.231C123.133 153.674 123.036 154.16 122.939 154.646C122.842 155.131 122.696 155.617 122.502 156.103H123.085C123.085 156.2 122.988 156.443 122.793 156.831H123.522C123.328 157.317 123.133 157.803 122.939 158.289C122.745 158.774 122.551 159.26 122.356 159.746H121.919L120.753 161.931H120.462L119.151 164.117H119.588C119.296 164.506 119.005 164.894 118.713 165.283C118.422 165.574 118.179 165.914 117.985 166.303H116.236C115.848 166.886 115.459 167.371 115.071 167.76H113.759L111.573 169.946H111.865L110.991 170.674H101.373L100.499 171.403H101.373L99.4792 172.86H108.368L107.202 173.589H114.633C113.759 174.074 112.885 174.56 112.011 175.046C111.136 175.531 110.213 176.017 109.242 176.503H106.328C106.036 176.6 105.745 176.697 105.453 176.794C105.162 176.891 104.871 177.037 104.579 177.231H110.262C109.873 177.329 109.533 177.426 109.242 177.523C108.951 177.62 108.659 177.766 108.368 177.96H89.1335C88.4535 178.251 87.6763 178.543 86.8021 178.834C86.0249 179.029 85.1992 179.223 84.3249 179.417H99.0421C97.7792 179.709 96.4678 179.951 95.1078 180.146C93.8449 180.437 92.5335 180.68 91.1735 180.874H73.5421C71.9878 181.069 70.3363 181.214 68.5878 181.311C66.9363 181.409 65.2849 181.457 63.6335 181.457C61.8849 181.457 60.1849 181.409 58.5335 181.311C56.8821 181.214 55.2306 181.069 53.5792 180.874H71.2106C69.8506 180.68 68.4906 180.437 67.1306 180.146C65.8678 179.951 64.6049 179.709 63.3421 179.417H48.6249C47.7506 179.223 46.9249 179.029 46.1478 178.834C45.3706 178.543 44.5935 178.251 43.8163 177.96H62.9049C62.6135 177.766 62.2735 177.62 61.8849 177.523C61.5935 177.426 61.3021 177.329 61.0106 177.231H55.3278L53.7249 176.503H56.7849C55.8135 176.017 54.8906 175.531 54.0163 175.046C53.1421 174.56 52.2678 174.074 51.3935 173.589H44.1078C43.9135 173.394 43.7192 173.249 43.5249 173.151C43.4278 173.054 43.2821 172.957 43.0878 172.86H34.1992C33.8106 172.666 33.4706 172.423 33.1792 172.131C32.8878 171.84 32.5963 171.597 32.3049 171.403H31.4306L30.5563 170.674H40.1735L39.2992 169.946H39.1535L36.9678 167.76H38.4249L37.1135 166.303H38.7163L37.2592 164.117H36.8221L35.5106 161.931H35.8021C35.6078 161.543 35.4135 161.203 35.2192 160.911C35.1221 160.523 34.9763 160.134 34.7821 159.746H35.0735C34.8792 159.26 34.6849 158.774 34.4906 158.289C34.2963 157.803 34.1021 157.317 33.9078 156.831H33.3249L33.0335 156.103H32.4506C32.0621 155.229 31.7706 154.257 31.5763 153.189H31.2849C31.1878 152.703 31.0906 152.217 30.9935 151.731C30.8963 151.246 30.7992 150.76 30.7021 150.274H31.4306C31.3335 150.08 31.2849 149.837 31.2849 149.546C31.2849 149.254 31.2363 149.011 31.1392 148.817H32.1592L31.8678 145.903H32.1592C32.0621 145.514 32.0135 145.174 32.0135 144.883C32.0135 144.494 32.0135 144.106 32.0135 143.717H30.8478V140.803H24.4363V137.889H19.0449V137.16H23.7078V134.246H35.9478V131.331H50.9563V130.603H39.1535V128.417H34.9278V126.231H29.8278V124.046H23.7078V121.131H29.8278V116.031H31.4306V114.574H32.1592V113.846H32.5963V110.931H31.2849V109.474H32.0135V108.746H29.8278V105.831H28.2249V104.374H17.0049V102.917H3.89062V101.46H39.7363V100.731H29.0992V97.8171H31.5763V96.36H29.9735V94.1743H45.8563V91.26H22.1049V90.5314H38.4249V89.0743H30.4106V87.6171H27.0592V86.16H37.8421V83.2457H31.4306V82.5171H31.1392V81.9343C31.1392 81.1571 31.2363 80.6229 31.4306 80.3314H30.5563C31.2363 78.7771 32.4506 78 34.1992 78H62.7592C64.4106 78 65.5763 78.7771 66.2563 80.3314H67.1306C67.4221 80.72 67.5678 81.2543 67.5678 81.9343V82.5171H67.8592V83.2457H74.2706V86.16H63.4878V87.6171H66.8392V89.0743H74.8535V90.5314H58.5335V91.26H82.2849V94.1743H66.4021V96.36H68.0049V97.8171H65.5278V100.731H87.8221V97.8171H89.1335V96.36H95.9821V94.1743H107.348V91.26H95.1078V90.5314H85.4906V89.0743H87.6763V87.6171H99.1878V86.16H92.1935V83.2457H88.9878V82.5171H85.9278V81.9343C85.9278 81.1571 86.0249 80.6229 86.2192 80.3314H89.4249C90.1049 78.7771 91.3192 78 93.0678 78H121.628C123.376 78 124.591 78.7771 125.271 80.3314H121.919C122.211 80.72 122.356 81.2543 122.356 81.9343V82.5171H125.416V83.2457H128.622V86.16H135.616V87.6171H124.105V89.0743H121.919V90.5314H131.536V91.26H143.776V94.1743H132.411V96.36H125.562V97.8171H124.251V100.731H109.096V101.46H124.396V102.917H116.965V104.374H106.765V105.831H117.402V108.746H123.231V109.474H126.728V110.931H127.311V113.846H125.562V114.574H125.416V116.031H126.582V118.946H128.331V121.131H128.768V124.046H117.111V126.231H122.356V128.417H117.402V130.603ZM71.3563 128.417H75.5821V130.603H80.9735V128.417H85.9278V126.231H80.6821V124.046H92.3392V121.131H91.9021V118.946H90.1535V116.031H88.9878V114.574H89.1335V113.846H90.8821V110.931H90.2992V109.474H86.8021V108.746H80.9735V105.831H70.3363V104.374H80.5363V102.917H87.9678V101.46H40.3192V102.917H53.4335V104.374H64.6535V105.831H66.2563V108.746H68.4421V109.474H67.7135V110.931H69.0249V113.846H68.5878V114.574H67.8592V116.031H66.2563V121.131H60.1363V124.046H66.2563V126.231H71.3563V128.417ZM100.936 131.331H108.368V130.603H87.3849V131.331H72.3763V134.246H60.1363V137.16H55.4735V137.889H60.8649V140.803H67.2763V140.949C67.2763 141.434 67.2763 141.92 67.2763 142.406C67.2763 142.794 67.3249 143.231 67.4221 143.717H68.5878L69.0249 145.903H68.8792C69.0735 146.874 69.6078 147.846 70.4821 148.817H69.4621C69.8506 149.4 70.3363 149.886 70.9192 150.274H70.1906C71.8421 151.537 74.1735 152.169 77.1849 152.169C80.0992 152.169 82.3821 151.537 84.0335 150.274H82.4306C83.0135 149.886 83.4992 149.4 83.8878 148.817H81.7021C82.2849 148.04 82.8192 147.069 83.3049 145.903H86.3649C86.5592 145.514 86.6563 145.174 86.6563 144.883C86.7535 144.494 86.8506 144.106 86.9478 143.717H81.1192C81.2163 143.231 81.2649 142.794 81.2649 142.406C81.3621 141.92 81.4106 141.434 81.4106 140.949V140.803H89.4249V137.889H88.1135V137.16H89.1335V134.246H100.936V131.331Z" fill="#E3514D"/>
<path d="M236.901 91.26H209.799V94.1743H220.144V96.36H231.364V98.5457H231.073V100.731H235.299V103.646H219.416V104.374H216.356V105.394C216.356 106.074 216.21 106.706 215.919 107.289H226.264C225.584 108.649 224.467 109.329 222.913 109.329H198.724V109.474H200.181V112.389H200.473V115.303H199.744V118.217H197.85V120.403H205.136V121.86H199.016V124.046H195.81V126.96H201.347V128.417H200.327V131.331H199.307V134.246H197.559V137.16H195.956V139.346H201.347V141.531H199.161V144.446H200.036V145.174H201.056V146.631H208.341V148.817H203.387V151.731H205.573V154.646H199.453V157.56H201.93V159.017H202.95V161.203H205.281V164.117H204.407V166.303H200.619V168.489H200.181V169.946H200.036V172.131H201.639V174.317H200.327V176.066C200.327 176.551 200.279 176.94 200.181 177.231H198.724C198.433 178.203 197.899 178.931 197.121 179.417H197.413C196.927 179.806 196.247 180 195.373 180H166.23C165.453 180 164.724 179.806 164.044 179.417H163.753C163.073 178.931 162.539 178.203 162.15 177.231H163.461C163.364 176.94 163.316 176.551 163.316 176.066V174.317H164.627V172.131H163.024V169.946H163.17V168.489H163.607V166.303H167.396V164.117H168.27V161.203H165.939V159.017H164.919V157.56H162.441V154.646H168.561V151.731H166.376V148.817H171.33V146.631H164.044V145.174H163.024V144.446H162.15V141.531H164.336V139.346H158.944V137.16H160.547V134.246H162.296V131.331H163.316V128.417H164.336V126.96H158.799V124.046H162.004V121.86H168.124V120.403H160.839V118.217H162.733V115.303H163.461V112.389H163.17V109.474H161.713V109.329H137.524C136.067 109.329 134.901 108.649 134.027 107.289H123.681C123.584 106.997 123.487 106.706 123.39 106.414C123.196 106.123 123.099 105.783 123.099 105.394V104.374H126.159V103.646H142.041V100.731H137.816V98.5457H138.107V96.36H126.887V94.1743H116.541V91.26H143.644V89.0743H128.49V86.16H131.404V83.2457H135.193V82.5171H137.379V81.9343C137.379 80.9629 137.67 80.1857 138.253 79.6029H135.047C135.824 78.5343 136.893 78 138.253 78H223.641C225.001 78 226.07 78.5343 226.847 79.6029H229.907C230.393 80.2829 230.636 81.06 230.636 81.9343V82.5171H228.45V83.2457H224.661V86.16H221.747V89.0743H236.901V91.26Z" fill="white"/>
</g>
<defs>
<clipPath id="clip0_5858_13">
<rect width="256" height="256" fill="white"/>
</clipPath>
</defs>
</svg>
